<svg width="144" height="129" viewBox="0 0 144 129" fill="none" xmlns="http://www.w3.org/2000/svg">
<path fill-rule="evenodd" clip-rule="evenodd" d="M64.5625 32H74.3125V32.002C74.4207 32.0007 74.529 32 74.6375 32C90.6123 32 103.562 46.5507 103.562 64.5C103.562 82.4493 90.6123 97 74.6375 97C74.529 97 74.4207 96.9993 74.3125 96.998V97H43.4375V84H66.1875V83.9735C66.5642 83.9911 66.9434 84 67.325 84C79.2613 84 88.9375 75.2696 88.9375 64.5C88.9375 53.7304 79.2613 45 67.325 45C66.9434 45 66.5642 45.0089 66.1875 45.0265V45H64.5625V32Z" fill="url(#paint0_linear_179456_13576)"/>
<path fill-rule="evenodd" clip-rule="evenodd" d="M41 35C41 33.3431 42.3431 32 44 32H49.375C51.0319 32 52.375 33.3431 52.375 35V42C52.375 42.1931 52.3568 42.382 52.3219 42.5649L56.1 48.2513C56.1291 48.2504 56.1582 48.25 56.1875 48.25H61.5625C63.2194 48.25 64.5625 49.5931 64.5625 51.25V58.25C64.5625 59.9069 63.2194 61.25 61.5625 61.25H57.0182L52.2944 66.8063C52.3471 67.029 52.375 67.2612 52.375 67.5V74.5C52.375 76.1569 51.0319 77.5 49.375 77.5H44C42.3431 77.5 41 76.1569 41 74.5V67.5C41 65.8431 42.3431 64.5 44 64.5H48.0448L53.1937 58.4438C53.1896 58.3797 53.1875 58.3151 53.1875 58.25V52.4176L48.2591 45H44C42.3431 45 41 43.6569 41 42V35Z" fill="url(#paint1_linear_179456_13576)"/>
<rect x="41" y="84" width="11.375" height="13" rx="3" fill="url(#paint2_linear_179456_13576)"/>
<rect x="58.875" y="32" width="11.375" height="13" rx="3" fill="url(#paint3_linear_179456_13576)"/>
<defs>
<linearGradient id="paint0_linear_179456_13576" x1="73.5" y1="32" x2="73.5" y2="97" gradientUnits="userSpaceOnUse">
<stop stop-color="#F6FA41"/>
<stop offset="1" stop-color="#0FB565"/>
</linearGradient>
<linearGradient id="paint1_linear_179456_13576" x1="52.7812" y1="32" x2="52.7813" y2="77.5" gradientUnits="userSpaceOnUse">
<stop stop-color="#F6FA41"/>
<stop offset="1" stop-color="#0FB565"/>
</linearGradient>
<linearGradient id="paint2_linear_179456_13576" x1="46.6875" y1="84" x2="46.6875" y2="97" gradientUnits="userSpaceOnUse">
<stop stop-color="#3AC25E"/>
<stop offset="1" stop-color="#14B764"/>
</linearGradient>
<linearGradient id="paint3_linear_179456_13576" x1="64.5625" y1="32" x2="64.5625" y2="45" gradientUnits="userSpaceOnUse">
<stop stop-color="#F4F942"/>
<stop offset="1" stop-color="#CDED48"/>
</linearGradient>
</defs>
</svg>
