<svg width="110" height="97" viewBox="0 0 110 97" fill="none" xmlns="http://www.w3.org/2000/svg">
<path fill-rule="evenodd" clip-rule="evenodd" d="M78.4765 51.5756C75.6691 67.9047 60.1561 78.866 43.8271 76.0586C40.9589 75.5655 38.2563 74.6804 35.7648 73.4676C32.3466 71.8038 33.7707 66.9809 37.1527 65.2447V65.2447C38.0793 64.7691 39.1116 64.5807 40.1503 64.657C49.7897 65.3654 58.5741 58.6474 60.2457 48.9245C61.909 39.2499 55.9409 30.0276 46.6973 27.4224C45.6051 27.1145 44.6162 26.5485 43.8331 25.7272V25.7272C40.9742 22.7287 41.0718 17.23 45.1829 16.7169C48.0438 16.3598 51.005 16.4124 53.9935 16.9262C70.3225 19.7336 81.2839 35.2466 78.4765 51.5756Z" fill="url(#paint0_linear_2_17)"/>
<path fill-rule="evenodd" clip-rule="evenodd" d="M43.6214 36.0901C44.2899 35.2449 44.7571 34.2216 44.9382 33.0816C45.5014 29.5363 43.0839 26.2056 39.5385 25.6423C35.9931 25.0791 32.6624 27.4966 32.0992 31.042C31.5359 34.5874 33.9535 37.9181 37.4988 38.4813C38.7382 38.6782 39.9513 38.5109 41.0291 38.0584L45.2583 43C44.5602 43.8582 44.0722 44.9064 43.8861 46.0775C43.6517 47.5529 43.9335 48.991 44.5979 50.208L39.3098 53.435C38.3456 52.3429 37.0103 51.5667 35.4592 51.3203C31.9138 50.7571 28.5831 53.1746 28.0198 56.72C27.4566 60.2654 29.8741 63.5961 33.4195 64.1593C36.9649 64.7225 40.2956 62.305 40.8588 58.7596C40.9906 57.9302 40.9592 57.1125 40.7885 56.3393L46.8789 52.6227C47.5925 53.0657 48.4043 53.3768 49.2858 53.5169C52.8312 54.0801 56.1619 51.6626 56.7251 48.1172C57.2884 44.5718 54.8708 41.2411 51.3255 40.6779C50.1185 40.4861 48.9364 40.6398 47.8799 41.0659L43.6214 36.0901Z" fill="url(#paint1_linear_2_17)"/>
<defs>
<linearGradient id="paint0_linear_2_17" x1="63.1748" y1="18.5047" x2="53.0084" y2="77.6371" gradientUnits="userSpaceOnUse">
<stop stop-color="#45AC35"/>
<stop offset="1" stop-color="#0FB565"/>
</linearGradient>
<linearGradient id="paint1_linear_2_17" x1="46.4518" y1="26.7406" x2="40.3328" y2="65.2576" gradientUnits="userSpaceOnUse">
<stop stop-color="#45AC35"/>
<stop offset="1" stop-color="#0FB565"/>
</linearGradient>
</defs>
</svg>
