<svg width="386" height="110" viewBox="0 0 386 110" fill="none" xmlns="http://www.w3.org/2000/svg">
<path d="M100.807 72V39.053H111.053C121.769 39.053 126.61 44.27 126.61 54.798C126.61 63.211 123.273 72 111.147 72H100.807ZM107.951 44.975V66.078H110.583C117.304 66.078 119.231 61.801 119.231 55.456C119.231 47.513 115.753 44.975 110.536 44.975H107.951ZM130.266 72V45.445H137.363V72H130.266ZM129.655 38.536C129.655 36.092 131.441 34.306 133.697 34.306C136.094 34.306 137.88 36.092 137.88 38.536C137.88 40.745 136.094 42.531 133.697 42.531C131.441 42.531 129.655 40.745 129.655 38.536ZM163.444 46.714V70.825C163.444 78.063 158.368 81.635 151.271 81.635C144.738 81.635 142.106 79.802 140.602 78.016L144.597 72.799C145.913 74.632 148.498 75.901 151.271 75.901C154.937 75.901 156.488 74.538 156.488 70.778V69.415H156.3C155.313 70.308 153.48 70.919 151.083 70.919C145.584 70.919 140.649 68.193 140.649 58.652C140.649 51.179 144.879 45.116 153.574 45.116C158.227 45.116 161.094 45.68 163.444 46.714ZM156.441 51.179C155.454 50.85 154.655 50.709 153.527 50.709C149.814 50.709 147.699 53.294 147.699 58.37C147.699 63.822 149.579 65.185 152.728 65.185C154.279 65.185 155.548 64.715 156.441 63.822V51.179ZM168.136 72V45.445H175.233V72H168.136ZM167.525 38.536C167.525 36.092 169.311 34.306 171.567 34.306C173.964 34.306 175.75 36.092 175.75 38.536C175.75 40.745 173.964 42.531 171.567 42.531C169.311 42.531 167.525 40.745 167.525 38.536ZM188.342 72.235C183.783 72.235 180.493 69.932 180.493 63.493V50.85H177.109V46.432L180.54 45.022L182.984 38.771H187.496V45.445H194.123V50.85H187.496V63.681C187.496 65.514 188.53 66.454 190.269 66.454C191.397 66.454 192.854 66.078 193.888 65.279L195.721 70.59C194.828 71.248 192.76 72.235 188.342 72.235ZM209.367 65.138V61.378C204.714 61.049 202.411 62.13 202.411 64.433C202.411 65.937 203.445 67.018 205.278 67.018C207.017 67.018 208.568 66.219 209.367 65.138ZM205.513 44.975C212.281 44.975 216.041 47.325 216.041 53.764V64.386C216.041 65.89 216.605 66.548 217.874 66.548H218.626V71.436C217.498 72.141 216.276 72.329 215.101 72.329C212.563 72.329 211.106 71.107 210.307 69.462H210.119C209.132 70.778 207.158 72.423 203.351 72.423C198.181 72.423 195.502 68.898 195.502 65.091C195.502 58.981 201.001 56.161 209.367 56.584V54.516C209.367 51.555 207.722 50.662 205.56 50.662C203.022 50.662 201.659 52.119 201.001 53.67L195.972 49.957C197.006 48.5 199.638 44.975 205.513 44.975ZM220.782 36.374H227.879V63.634C227.879 65.608 228.772 66.266 230.088 66.266C230.605 66.266 230.84 66.219 231.075 66.172V71.765C230.229 72.094 229.242 72.423 227.691 72.423C223.367 72.423 220.782 69.885 220.782 65.467V36.374Z" fill="black"/>
<path d="M245.585 39.053H252.776V66.078H264.902V72H245.585V39.053ZM272.837 58.558C272.837 64.057 274.2 66.971 277.772 66.971C281.391 66.971 282.519 64.339 282.519 58.934C282.519 53.435 281.156 50.521 277.49 50.521C274.247 50.521 272.837 53.153 272.837 58.558ZM277.537 72.517C268.419 72.517 265.552 67.065 265.552 58.84C265.552 50.662 268.983 44.975 277.772 44.975C286.937 44.975 289.804 50.427 289.804 58.652C289.804 66.83 286.326 72.517 277.537 72.517ZM305.304 65.138V61.378C300.651 61.049 298.348 62.13 298.348 64.433C298.348 65.937 299.382 67.018 301.215 67.018C302.954 67.018 304.505 66.219 305.304 65.138ZM301.45 44.975C308.218 44.975 311.978 47.325 311.978 53.764V64.386C311.978 65.89 312.542 66.548 313.811 66.548H314.563V71.436C313.435 72.141 312.213 72.329 311.038 72.329C308.5 72.329 307.043 71.107 306.244 69.462H306.056C305.069 70.778 303.095 72.423 299.288 72.423C294.118 72.423 291.439 68.898 291.439 65.091C291.439 58.981 296.938 56.161 305.304 56.584V54.516C305.304 51.555 303.659 50.662 301.497 50.662C298.959 50.662 297.596 52.119 296.938 53.67L291.909 49.957C292.943 48.5 295.575 44.975 301.45 44.975ZM339.138 53.623V72H332.041V55.127C332.041 52.401 330.772 50.803 328.375 50.803C326.307 50.803 324.615 52.025 323.816 53.952V72H316.719V45.445H322.265L323.675 47.936H323.863C325.461 46.009 328.234 44.787 331.007 44.787C336.177 44.787 339.138 47.654 339.138 53.623Z" fill="#0FB565"/>
<path fill-rule="evenodd" clip-rule="evenodd" d="M88.4765 56.5756C85.6691 72.9047 70.1561 83.866 53.8271 81.0586C50.9589 80.5655 48.2563 79.6804 45.7648 78.4676C42.3466 76.8038 43.7707 71.9809 47.1527 70.2447V70.2447C48.0793 69.7691 49.1116 69.5807 50.1503 69.657C59.7897 70.3654 68.5741 63.6474 70.2457 53.9245C71.909 44.2499 65.9409 35.0276 56.6973 32.4224C55.6051 32.1145 54.6162 31.5485 53.8331 30.7272V30.7272C50.9742 27.7287 51.0718 22.23 55.1829 21.7169C58.0438 21.3598 61.005 21.4124 63.9935 21.9262C80.3225 24.7336 91.2839 40.2466 88.4765 56.5756Z" fill="url(#paint0_linear_8_58)"/>
<path fill-rule="evenodd" clip-rule="evenodd" d="M53.6214 41.0901C54.2899 40.2449 54.7571 39.2216 54.9382 38.0816C55.5014 34.5363 53.0839 31.2056 49.5385 30.6423C45.9931 30.0791 42.6624 32.4966 42.0992 36.042C41.5359 39.5874 43.9535 42.9181 47.4988 43.4813C48.7382 43.6782 49.9513 43.5109 51.0291 43.0584L55.2583 48C54.5602 48.8582 54.0722 49.9064 53.8861 51.0775C53.6517 52.5529 53.9335 53.991 54.5979 55.208L49.3098 58.435C48.3456 57.3429 47.0103 56.5667 45.4592 56.3203C41.9138 55.7571 38.5831 58.1746 38.0198 61.72C37.4566 65.2654 39.8741 68.5961 43.4195 69.1593C46.9649 69.7225 50.2956 67.305 50.8588 63.7596C50.9906 62.9302 50.9592 62.1125 50.7885 61.3393L56.8789 57.6227C57.5925 58.0657 58.4043 58.3768 59.2858 58.5169C62.8312 59.0801 66.1619 56.6626 66.7251 53.1172C67.2884 49.5718 64.8708 46.2411 61.3255 45.6779C60.1185 45.4861 58.9364 45.6398 57.8799 46.0659L53.6214 41.0901Z" fill="url(#paint1_linear_8_58)"/>
<defs>
<linearGradient id="paint0_linear_8_58" x1="73.1748" y1="23.5047" x2="63.0084" y2="82.6371" gradientUnits="userSpaceOnUse">
<stop stop-color="#45AC35"/>
<stop offset="1" stop-color="#0FB565"/>
</linearGradient>
<linearGradient id="paint1_linear_8_58" x1="56.4518" y1="31.7406" x2="50.3328" y2="70.2576" gradientUnits="userSpaceOnUse">
<stop stop-color="#45AC35"/>
<stop offset="1" stop-color="#0FB565"/>
</linearGradient>
</defs>
</svg>
