<svg width="324" height="65" viewBox="0 0 324 65" fill="none" xmlns="http://www.w3.org/2000/svg">
<g clip-path="url(#clip0_179465_10566)">
<path d="M67.807 52V19.053H78.053C88.769 19.053 93.61 24.27 93.61 34.798C93.61 43.211 90.273 52 78.147 52H67.807ZM74.951 24.975V46.078H77.583C84.304 46.078 86.231 41.801 86.231 35.456C86.231 27.513 82.753 24.975 77.536 24.975H74.951ZM97.2657 52V25.445H104.363V52H97.2657ZM96.6547 18.536C96.6547 16.092 98.4407 14.306 100.697 14.306C103.094 14.306 104.88 16.092 104.88 18.536C104.88 20.745 103.094 22.531 100.697 22.531C98.4407 22.531 96.6547 20.745 96.6547 18.536ZM130.444 26.714V50.825C130.444 58.063 125.368 61.635 118.271 61.635C111.738 61.635 109.106 59.802 107.602 58.016L111.597 52.799C112.913 54.632 115.498 55.901 118.271 55.901C121.937 55.901 123.488 54.538 123.488 50.778V49.415H123.3C122.313 50.308 120.48 50.919 118.083 50.919C112.584 50.919 107.649 48.193 107.649 38.652C107.649 31.179 111.879 25.116 120.574 25.116C125.227 25.116 128.094 25.68 130.444 26.714ZM123.441 31.179C122.454 30.85 121.655 30.709 120.527 30.709C116.814 30.709 114.699 33.294 114.699 38.37C114.699 43.822 116.579 45.185 119.728 45.185C121.279 45.185 122.548 44.715 123.441 43.822V31.179ZM135.136 52V25.445H142.233V52H135.136ZM134.525 18.536C134.525 16.092 136.311 14.306 138.567 14.306C140.964 14.306 142.75 16.092 142.75 18.536C142.75 20.745 140.964 22.531 138.567 22.531C136.311 22.531 134.525 20.745 134.525 18.536ZM155.342 52.235C150.783 52.235 147.493 49.932 147.493 43.493V30.85H144.109V26.432L147.54 25.022L149.984 18.771H154.496V25.445H161.123V30.85H154.496V43.681C154.496 45.514 155.53 46.454 157.269 46.454C158.397 46.454 159.854 46.078 160.888 45.279L162.721 50.59C161.828 51.248 159.76 52.235 155.342 52.235ZM176.367 45.138V41.378C171.714 41.049 169.411 42.13 169.411 44.433C169.411 45.937 170.445 47.018 172.278 47.018C174.017 47.018 175.568 46.219 176.367 45.138ZM172.513 24.975C179.281 24.975 183.041 27.325 183.041 33.764V44.386C183.041 45.89 183.605 46.548 184.874 46.548H185.626V51.436C184.498 52.141 183.276 52.329 182.101 52.329C179.563 52.329 178.106 51.107 177.307 49.462H177.119C176.132 50.778 174.158 52.423 170.351 52.423C165.181 52.423 162.502 48.898 162.502 45.091C162.502 38.981 168.001 36.161 176.367 36.584V34.516C176.367 31.555 174.722 30.662 172.56 30.662C170.022 30.662 168.659 32.119 168.001 33.67L162.972 29.957C164.006 28.5 166.638 24.975 172.513 24.975ZM187.782 16.374H194.879V43.634C194.879 45.608 195.772 46.266 197.088 46.266C197.605 46.266 197.84 46.219 198.075 46.172V51.765C197.229 52.094 196.242 52.423 194.691 52.423C190.367 52.423 187.782 49.885 187.782 45.467V16.374Z" fill="black"/>
<path d="M212.585 19.053H219.776V46.078H231.902V52H212.585V19.053ZM239.837 38.558C239.837 44.057 241.2 46.971 244.772 46.971C248.391 46.971 249.519 44.339 249.519 38.934C249.519 33.435 248.156 30.521 244.49 30.521C241.247 30.521 239.837 33.153 239.837 38.558ZM244.537 52.517C235.419 52.517 232.552 47.065 232.552 38.84C232.552 30.662 235.983 24.975 244.772 24.975C253.937 24.975 256.804 30.427 256.804 38.652C256.804 46.83 253.326 52.517 244.537 52.517ZM272.304 45.138V41.378C267.651 41.049 265.348 42.13 265.348 44.433C265.348 45.937 266.382 47.018 268.215 47.018C269.954 47.018 271.505 46.219 272.304 45.138ZM268.45 24.975C275.218 24.975 278.978 27.325 278.978 33.764V44.386C278.978 45.89 279.542 46.548 280.811 46.548H281.563V51.436C280.435 52.141 279.213 52.329 278.038 52.329C275.5 52.329 274.043 51.107 273.244 49.462H273.056C272.069 50.778 270.095 52.423 266.288 52.423C261.118 52.423 258.439 48.898 258.439 45.091C258.439 38.981 263.938 36.161 272.304 36.584V34.516C272.304 31.555 270.659 30.662 268.497 30.662C265.959 30.662 264.596 32.119 263.938 33.67L258.909 29.957C259.943 28.5 262.575 24.975 268.45 24.975ZM306.138 33.623V52H299.041V35.127C299.041 32.401 297.772 30.803 295.375 30.803C293.307 30.803 291.615 32.025 290.816 33.952V52H283.719V25.445H289.265L290.675 27.936H290.863C292.461 26.009 295.234 24.787 298.007 24.787C303.177 24.787 306.138 27.654 306.138 33.623Z" fill="#0FB565"/>
<path fill-rule="evenodd" clip-rule="evenodd" d="M21.4675 5H30.3506V5.00183C30.4492 5.00061 30.5479 5 30.6468 5C45.2012 5 57 18.257 57 34.6104C57 50.9638 45.2012 64.2208 30.6468 64.2208C30.5479 64.2208 30.4492 64.2202 30.3506 64.2189V64.2208H2.22078V52.3766H22.9481V52.3525C23.2913 52.3685 23.6368 52.3767 23.9844 52.3767C34.8594 52.3767 43.6753 44.4224 43.6753 34.6104C43.6753 24.7984 34.8594 16.8442 23.9844 16.8442C23.6368 16.8442 23.2913 16.8523 22.9481 16.8684V16.8442H21.4675V5Z" fill="url(#paint0_linear_179465_10566)"/>
<path fill-rule="evenodd" clip-rule="evenodd" d="M0 8C0 6.34315 1.34315 5 3 5H7.36364C9.02049 5 10.3636 6.34315 10.3636 8V13.8442C10.3636 14.0932 10.3333 14.3352 10.2761 14.5666L13.769 19.8237C13.8789 19.8115 13.9907 19.8052 14.1039 19.8052H18.4675C20.1244 19.8052 21.4675 21.1483 21.4675 22.8052V28.6493C21.4675 30.3062 20.1244 31.6494 18.4675 31.6494H14.594L10.2434 36.7667C10.3217 37.0343 10.3636 37.3175 10.3636 37.6104V43.4545C10.3636 45.1114 9.02049 46.4545 7.36364 46.4545H3C1.34314 46.4545 0 45.1114 0 43.4545V37.6104C0 35.9535 1.34315 34.6104 3 34.6104H6.41844L11.1325 29.0655C11.1137 28.9295 11.1039 28.7906 11.1039 28.6494V23.6022L6.61373 16.8442H3C1.34314 16.8442 0 15.501 0 13.8442V8Z" fill="url(#paint1_linear_179465_10566)"/>
<rect y="52.3766" width="10.3636" height="11.8442" rx="3" fill="url(#paint2_linear_179465_10566)"/>
<rect x="16.2857" y="5" width="10.3636" height="11.8442" rx="3" fill="url(#paint3_linear_179465_10566)"/>
</g>
<defs>
<linearGradient id="paint0_linear_179465_10566" x1="29.6104" y1="5" x2="29.6104" y2="64.2208" gradientUnits="userSpaceOnUse">
<stop stop-color="#F6FA41"/>
<stop offset="1" stop-color="#0FB565"/>
</linearGradient>
<linearGradient id="paint1_linear_179465_10566" x1="10.7338" y1="5" x2="10.7338" y2="46.4545" gradientUnits="userSpaceOnUse">
<stop stop-color="#F6FA41"/>
<stop offset="1" stop-color="#0FB565"/>
</linearGradient>
<linearGradient id="paint2_linear_179465_10566" x1="5.18182" y1="52.3766" x2="5.18182" y2="64.2207" gradientUnits="userSpaceOnUse">
<stop stop-color="#3AC25E"/>
<stop offset="1" stop-color="#14B764"/>
</linearGradient>
<linearGradient id="paint3_linear_179465_10566" x1="21.4675" y1="5" x2="21.4675" y2="16.8442" gradientUnits="userSpaceOnUse">
<stop stop-color="#F4F942"/>
<stop offset="1" stop-color="#CDED48"/>
</linearGradient>
<clipPath id="clip0_179465_10566">
<rect width="324" height="65" fill="white"/>
</clipPath>
</defs>
</svg>
